<svg width="13" height="15" viewBox="0 0 13 15" fill="none" xmlns="http://www.w3.org/2000/svg">
<path d="M0.904401 6.334L0.126401 13.334L1.1204 13.445L1.8984 6.444L0.904401 6.334ZM1.6174 15H11.3834V14H1.6174V15ZM12.8744 13.334L12.0964 6.334L11.1024 6.444L11.8804 13.445L12.8744 13.334ZM10.6044 5H2.3964V6H10.6064L10.6044 5ZM12.0964 6.334C12.0556 5.96715 11.8809 5.62824 11.6058 5.38212C11.3307 5.136 10.9735 4.99995 10.6044 5L10.6054 6C10.7285 5.99999 10.8473 6.04539 10.939 6.1275C11.0307 6.20961 11.0889 6.32266 11.1024 6.445L12.0964 6.334ZM11.3834 15C11.5943 14.9999 11.8029 14.9553 11.9954 14.8691C12.1879 14.783 12.3601 14.6572 12.5007 14.5C12.6413 14.3427 12.7472 14.1576 12.8114 13.9567C12.8756 13.7558 12.8977 13.5436 12.8744 13.334L11.8804 13.445C11.8883 13.515 11.8813 13.5848 11.8599 13.6519C11.8385 13.7189 11.8032 13.7807 11.7563 13.8332C11.7094 13.8857 11.6519 13.9277 11.5877 13.9564C11.5234 13.9852 11.4538 14 11.3834 14V15ZM0.126401 13.334C0.10305 13.5437 0.124206 13.756 0.188488 13.957C0.25277 14.1579 0.358731 14.3431 0.499449 14.5003C0.640166 14.6576 0.812474 14.7833 1.00511 14.8694C1.19776 14.9555 1.40639 15 1.6174 15V14C1.5471 14 1.47758 13.9852 1.41339 13.9565C1.34921 13.9278 1.29179 13.8859 1.24489 13.8336C1.19799 13.7812 1.16266 13.7195 1.14121 13.6526C1.11976 13.5856 1.11267 13.5149 1.1204 13.445L0.126401 13.334ZM1.8984 6.444C1.91217 6.32184 1.97046 6.20903 2.06214 6.12712C2.15382 6.04522 2.27346 5.99996 2.3964 6V5C2.02745 5.00019 1.67052 5.13635 1.39564 5.38245C1.12077 5.62855 0.945231 5.96732 0.904401 6.334L1.8984 6.444ZM4.0004 4V3.5H3.0004V4H4.0004ZM9.0004 3.5V4H10.0004V3.5H9.0004ZM6.5004 1C7.16344 1 7.79933 1.26339 8.26817 1.73223C8.73701 2.20107 9.0004 2.83696 9.0004 3.5H10.0004C10.0004 2.57174 9.63165 1.6815 8.97528 1.02513C8.3189 0.368749 7.42866 0 6.5004 0V1ZM4.0004 3.5C4.0004 2.83696 4.26379 2.20107 4.73263 1.73223C5.20148 1.26339 5.83736 1 6.5004 1V0C5.57214 0 4.68191 0.368749 4.02553 1.02513C3.36915 1.6815 3.0004 2.57174 3.0004 3.5H4.0004Z" fill="black"/>
</svg>
