<svg width="21" height="20" viewBox="0 0 21 20" fill="none" xmlns="http://www.w3.org/2000/svg">
<path fill-rule="evenodd" clip-rule="evenodd" d="M9.62971 0C4.31137 0 0 4.20819 0 9.39926C0 14.5903 4.31137 18.7985 9.62971 18.7985C11.9044 18.7985 13.9948 18.0287 15.6425 16.7415L18.7725 19.7886L18.8558 19.8586C19.1464 20.0685 19.5583 20.0446 19.8213 19.7873C20.1105 19.5043 20.1099 19.0459 19.8199 18.7636L16.7267 15.7523C18.2995 14.0794 19.2594 11.8487 19.2594 9.39926C19.2594 4.20819 14.9481 0 9.62971 0ZM9.62971 1.44774C14.1289 1.44774 17.7762 5.00776 17.7762 9.39926C17.7762 13.7908 14.1289 17.3508 9.62971 17.3508C5.13054 17.3508 1.48323 13.7908 1.48323 9.39926C1.48323 5.00776 5.13054 1.44774 9.62971 1.44774Z" fill="#595959"/>
</svg>
